<?xml version="1.0" encoding="utf-8"?>
<!-- Generator: Adobe Illustrator 24.0.1, SVG Export Plug-In . SVG Version: 6.00 Build 0)  -->
<svg version="1.1" id="Layer_1" xmlns="http://www.w3.org/2000/svg" xmlns:xlink="http://www.w3.org/1999/xlink" x="0px" y="0px"
	 viewBox="0 0 1000 1000" style="enable-background:new 0 0 1000 1000;" xml:space="preserve">
<style type="text/css">
	.st0{fill:#694272;}
	.st1{fill:url(#SVGID_1_);}
	.st2{clip-path:url(#SVGID_3_);}
	.st3{fill:url(#SVGID_6_);}
	.st4{fill:#01FEF7;}
	.st5{opacity:0.5;fill:url(#SVGID_7_);}
	.st6{opacity:0.5;fill:url(#SVGID_8_);}
	.st7{opacity:0.5;fill:url(#SVGID_9_);}
	.st8{opacity:0.5;fill:url(#SVGID_10_);}
	.st9{opacity:0.5;fill:url(#SVGID_11_);}
	.st10{opacity:0.5;fill:url(#SVGID_12_);}
	.st11{fill:url(#SVGID_13_);}
	.st12{fill:url(#SVGID_14_);}
	.st13{fill:url(#SVGID_15_);}
	.st14{opacity:0.7;fill:url(#SVGID_16_);}
	.st15{fill:url(#SVGID_17_);}
	.st16{fill:url(#SVGID_18_);}
	.st17{opacity:0.5;fill:url(#SVGID_19_);}
	.st18{opacity:0.7;fill:url(#SVGID_20_);}
	.st19{opacity:0.7;}
	.st20{fill:url(#SVGID_21_);}
	.st21{fill:url(#SVGID_22_);}
	.st22{fill:none;}
	.st23{clip-path:url(#SVGID_24_);}
	.st24{fill:#FFAC33;}
	.st25{clip-path:url(#SVGID_26_);}
	.st26{clip-path:url(#SVGID_28_);}
</style>
<linearGradient id="SVGID_1_" gradientUnits="userSpaceOnUse" x1="500" y1="1000" x2="500" y2="-9.094947e-13">
	<stop  offset="0" style="stop-color:#132C4A"/>
	<stop  offset="0.4055" style="stop-color:#131F3C"/>
	<stop  offset="1" style="stop-color:#130521"/>
</linearGradient>
<rect class="st1" width="1000" height="1000"/>
<g>
	<g>
		<g>
			<polygon class="st4" points="225.69,497.05 256.5,527.86 325.56,458.8 320.43,402.31 			"/>
			<polygon class="st4" points="287.3,558.66 318.11,589.47 335.81,571.77 330.68,515.28 			"/>
			<polygon class="st4" points="418.73,488.85 413.6,432.37 408.47,375.88 449.53,334.83 449.93,334.43 490.98,293.37 
				491.39,292.97 527.86,256.5 497.05,225.69 486.26,236.48 485.86,236.88 444.8,277.94 444.4,278.34 403.34,319.4 402.94,319.8 
				361.89,360.86 361.48,361.26 366.61,417.74 371.74,474.23 376.87,530.71 382,587.2 348.92,620.28 379.72,651.08 387.12,643.68 
				387.53,643.28 428.58,602.22 428.98,601.82 423.86,545.34 			"/>
			<polygon class="st4" points="511.9,518.91 506.77,462.42 501.64,405.94 542.7,364.88 543.1,364.48 584.16,323.42 584.56,323.02 
				589.47,318.11 583.58,312.22 583.1,311.74 558.66,287.3 537.97,308 537.57,308.4 496.51,349.45 496.11,349.85 455.06,390.91 
				454.66,391.31 459.78,447.8 464.91,504.28 470.04,560.77 475.17,617.25 434.11,658.31 433.71,658.71 410.53,681.89 438.34,709.7 
				438.82,710.18 441.34,712.7 480.3,673.74 480.7,673.34 521.75,632.28 522.15,631.88 517.03,575.39 			"/>
			<polygon class="st4" points="712.7,441.34 681.89,410.53 641,451.42 646.13,507.91 			"/>
			<polygon class="st4" points="605.07,548.96 599.94,492.48 594.81,435.99 635.87,394.94 651.08,379.72 632.83,361.47 
				620.28,348.92 589.69,379.51 589.28,379.91 548.23,420.97 547.83,421.37 552.95,477.85 558.08,534.34 563.21,590.82 
				568.34,647.31 527.28,688.36 526.88,688.76 485.82,729.82 485.42,730.22 472.14,743.5 488.08,759.43 488.56,759.91 
				502.95,774.31 532.01,745.25 532.41,744.85 573.47,703.79 573.87,703.39 614.92,662.33 615.33,661.93 610.2,605.45 			"/>
			<polygon class="st4" points="743.5,472.14 651.25,564.39 656.38,620.88 774.31,502.95 			"/>
		</g>
		
			<linearGradient id="SVGID_3_" gradientUnits="userSpaceOnUse" x1="355.1749" y1="568.0281" x2="491.0893" y2="568.0281" gradientTransform="matrix(0.68 0.68 -0.7071 0.7071 509.1674 -207.8389)">
			<stop  offset="0" style="stop-color:#01FEF7;stop-opacity:0"/>
			<stop  offset="0.0978" style="stop-color:#03F0EE;stop-opacity:0.0978"/>
			<stop  offset="0.2815" style="stop-color:#07CCD8;stop-opacity:0.2815"/>
			<stop  offset="0.5315" style="stop-color:#0D92B3;stop-opacity:0.5315"/>
			<stop  offset="0.8348" style="stop-color:#164281;stop-opacity:0.8348"/>
			<stop  offset="1" style="stop-color:#1B1464"/>
		</linearGradient>
		<polygon style="opacity:0.5;fill:url(#SVGID_3_);" points="418.73,488.85 413.6,432.37 408.47,375.88 408.07,376.28 
			367.01,417.34 366.61,417.74 371.74,474.23 376.87,530.71 382,587.2 382.4,586.8 423.45,545.74 423.86,545.34 		"/>
		
			<linearGradient id="SVGID_5_" gradientUnits="userSpaceOnUse" x1="445.7846" y1="523.3982" x2="581.699" y2="523.3982" gradientTransform="matrix(0.68 0.68 -0.7071 0.7071 509.1674 -207.8389)">
			<stop  offset="0" style="stop-color:#01FEF7;stop-opacity:0"/>
			<stop  offset="0.0978" style="stop-color:#03F0EE;stop-opacity:0.0978"/>
			<stop  offset="0.2815" style="stop-color:#07CCD8;stop-opacity:0.2815"/>
			<stop  offset="0.5315" style="stop-color:#0D92B3;stop-opacity:0.5315"/>
			<stop  offset="0.8348" style="stop-color:#164281;stop-opacity:0.8348"/>
			<stop  offset="1" style="stop-color:#1B1464"/>
		</linearGradient>
		<polygon style="opacity:0.5;fill:url(#SVGID_5_);" points="511.9,518.91 506.77,462.42 501.64,405.94 501.24,406.34 460.18,447.4 
			459.78,447.8 464.91,504.28 470.04,560.77 475.17,617.25 475.57,616.85 516.63,575.79 517.03,575.39 		"/>
		
			<linearGradient id="SVGID_6_" gradientUnits="userSpaceOnUse" x1="536.3942" y1="478.7681" x2="672.3087" y2="478.7681" gradientTransform="matrix(0.68 0.68 -0.7071 0.7071 509.1674 -207.8389)">
			<stop  offset="0" style="stop-color:#01FEF7;stop-opacity:0"/>
			<stop  offset="0.0978" style="stop-color:#03F0EE;stop-opacity:0.0978"/>
			<stop  offset="0.2815" style="stop-color:#07CCD8;stop-opacity:0.2815"/>
			<stop  offset="0.5315" style="stop-color:#0D92B3;stop-opacity:0.5315"/>
			<stop  offset="0.8348" style="stop-color:#164281;stop-opacity:0.8348"/>
			<stop  offset="1" style="stop-color:#1B1464"/>
		</linearGradient>
		<polygon style="opacity:0.5;fill:url(#SVGID_6_);" points="605.07,548.96 599.94,492.48 594.81,435.99 594.41,436.39 
			553.36,477.45 552.95,477.85 558.08,534.34 563.21,590.82 568.34,647.31 568.74,646.91 609.8,605.85 610.2,605.45 		"/>
		
			<linearGradient id="SVGID_7_" gradientUnits="userSpaceOnUse" x1="423.1321" y1="652.0988" x2="423.1321" y2="483.9575" gradientTransform="matrix(0.68 0.68 -0.7071 0.7071 509.1674 -207.8389)">
			<stop  offset="0" style="stop-color:#01FEF7;stop-opacity:0"/>
			<stop  offset="0.0978" style="stop-color:#03F0EE;stop-opacity:0.0978"/>
			<stop  offset="0.2815" style="stop-color:#07CCD8;stop-opacity:0.2815"/>
			<stop  offset="0.5315" style="stop-color:#0D92B3;stop-opacity:0.5315"/>
			<stop  offset="0.8348" style="stop-color:#164281;stop-opacity:0.8348"/>
			<stop  offset="1" style="stop-color:#1B1464"/>
		</linearGradient>
		<polygon class="st5" points="418.73,488.85 413.6,432.37 408.47,375.88 408.07,376.28 367.01,417.34 366.61,417.74 371.74,474.23 
			376.87,530.71 382,587.2 382.4,586.8 423.45,545.74 423.86,545.34 		"/>
		
			<linearGradient id="SVGID_8_" gradientUnits="userSpaceOnUse" x1="513.7418" y1="607.4689" x2="513.7418" y2="439.3275" gradientTransform="matrix(0.68 0.68 -0.7071 0.7071 509.1674 -207.8389)">
			<stop  offset="0" style="stop-color:#01FEF7;stop-opacity:0"/>
			<stop  offset="0.0978" style="stop-color:#03F0EE;stop-opacity:0.0978"/>
			<stop  offset="0.2815" style="stop-color:#07CCD8;stop-opacity:0.2815"/>
			<stop  offset="0.5315" style="stop-color:#0D92B3;stop-opacity:0.5315"/>
			<stop  offset="0.8348" style="stop-color:#164281;stop-opacity:0.8348"/>
			<stop  offset="1" style="stop-color:#1B1464"/>
		</linearGradient>
		<polygon class="st6" points="511.9,518.91 506.77,462.42 501.64,405.94 501.24,406.34 460.18,447.4 459.78,447.8 464.91,504.28 
			470.04,560.77 475.17,617.25 475.57,616.85 516.63,575.79 517.03,575.39 		"/>
		
			<linearGradient id="SVGID_9_" gradientUnits="userSpaceOnUse" x1="604.3514" y1="562.8387" x2="604.3514" y2="394.6974" gradientTransform="matrix(0.68 0.68 -0.7071 0.7071 509.1674 -207.8389)">
			<stop  offset="0" style="stop-color:#01FEF7;stop-opacity:0"/>
			<stop  offset="0.0978" style="stop-color:#03F0EE;stop-opacity:0.0978"/>
			<stop  offset="0.2815" style="stop-color:#07CCD8;stop-opacity:0.2815"/>
			<stop  offset="0.5315" style="stop-color:#0D92B3;stop-opacity:0.5315"/>
			<stop  offset="0.8348" style="stop-color:#164281;stop-opacity:0.8348"/>
			<stop  offset="1" style="stop-color:#1B1464"/>
		</linearGradient>
		<polygon class="st7" points="605.07,548.96 599.94,492.48 594.81,435.99 594.41,436.39 553.36,477.45 552.95,477.85 
			558.08,534.34 563.21,590.82 568.34,647.31 568.74,646.91 609.8,605.85 610.2,605.45 		"/>
	</g>
</g>
</svg>
